<?xml version="1.0" encoding="iso-8859-1"?>
<!-- Generator: Adobe Illustrator 19.0.0, SVG Export Plug-In . SVG Version: 6.00 Build 0)  -->
<svg xmlns="http://www.w3.org/2000/svg" xmlns:xlink="http://www.w3.org/1999/xlink" version="1.1" id="Capa_1" x="0px" y="0px" viewBox="0 0 470.827 470.827" style="enable-background:new 0 0 470.827 470.827;" xml:space="preserve" width="512px" height="512px">
<path id="XMLID_593_" d="M19.565,80.832c27.381-32.298,59.972-59.11,96.868-79.691c4.34-2.42,9.822-0.865,12.244,3.476  c2.421,4.341,0.865,9.823-3.476,12.244C90.198,36.386,59.276,61.826,33.296,92.472c-1.78,2.1-4.317,3.18-6.87,3.18  c-2.057,0-4.124-0.701-5.815-2.135C16.819,90.303,16.352,84.623,19.565,80.832z M67.777,80.833  c-3.214,3.792-2.746,9.471,1.045,12.685c1.692,1.434,3.759,2.135,5.815,2.135c2.553,0,5.089-1.081,6.87-3.18  c21.386-25.227,48.843-45.019,79.404-57.235c4.615-1.845,6.861-7.082,5.016-11.698c-1.844-4.614-7.079-6.863-11.698-5.016  C120.951,31.826,91.056,53.373,67.777,80.833z M406.265,363.459c3.161-3.836,2.614-9.508-1.222-12.669  c-3.834-3.16-9.507-2.614-12.669,1.222c-10.459,12.693-22.454,24.105-35.65,33.917c-3.989,2.966-4.818,8.604-1.852,12.593  c1.767,2.375,4.48,3.63,7.229,3.63c1.867,0,3.75-0.579,5.363-1.778C381.826,389.693,394.88,377.273,406.265,363.459z   M451.373,260.894c1.709,2.097,2.384,4.852,1.838,7.502l-9.174,44.516c-2.688,13.046-11.758,21.477-23.107,21.477h-41.3  c-14.128,18.24-31.54,33.542-51.139,45.168l26.053,73.27h86.374c4.971,0,9,4.029,9,9s-4.029,9-9,9H31.139c-4.971,0-9-4.029-9-9  s4.029-9,9-9h86.375l26.055-73.268c-19.597-11.625-37.011-26.93-51.141-45.17h-41.3c-11.353,0-20.423-8.431-23.109-21.479  l-9.172-44.514c-0.546-2.65,0.129-5.405,1.838-7.502c1.709-2.097,4.271-3.314,6.977-3.314H57.72  c-2.145-11.235-3.228-22.709-3.228-34.246c0-11.533,1.083-23.008,3.229-34.248h-6.593c-11.353,0-20.423-8.431-23.109-21.479  l-9.172-44.514c-0.546-2.65,0.129-5.405,1.838-7.502c1.709-2.097,4.271-3.314,6.977-3.314H92.43  c23.336-30.125,55.572-52.202,91.865-62.986l-4.042-19.615c-0.546-2.65,0.129-5.405,1.838-7.502s4.271-3.314,6.977-3.314h93.923  c2.706,0,5.268,1.217,6.977,3.314c1.709,2.097,2.384,4.852,1.838,7.502l-4.042,19.616c36.292,10.784,68.528,32.86,91.865,62.985  h64.768c2.706,0,5.268,1.217,6.977,3.314c1.709,2.097,2.384,4.852,1.838,7.502l-9.174,44.516  c-2.688,13.046-11.758,21.477-23.107,21.477h-6.593c2.146,11.243,3.229,22.717,3.229,34.248c0,11.534-1.083,23.01-3.228,34.246  h30.059C447.102,257.58,449.664,258.797,451.373,260.894z M361.517,130.276l6.944,33.7c0.245,1.188,1.658,7.11,5.478,7.11h46.991  c3.82,0,5.233-5.922,5.478-7.109l6.945-33.701h-58.093c-0.07,0.001-0.141,0.001-0.211,0H361.517z M350.832,167.608l-0.03-0.146  l-82.479,47.621c0.675,2.64,1.034,5.404,1.034,8.251s-0.359,5.611-1.034,8.251l74.63,43.087l-1.293-6.276  c-0.546-2.65,0.129-5.405,1.838-7.502c1.709-2.097,4.271-3.314,6.977-3.314h45.502c2.384-11.197,3.59-22.686,3.59-34.246  c0-11.555-1.206-23.045-3.591-34.248h-22.036C362.589,189.085,353.519,180.655,350.832,167.608z M259.524,95.668h-14.495v95.572  c5.449,1.53,10.336,4.414,14.276,8.263l87.668-50.616l-5.315-25.795c-0.546-2.65,0.129-5.405,1.838-7.502  c1.709-2.097,4.271-3.314,6.977-3.314h5.583c-19.583-21.145-44.44-36.826-71.94-45.284l-1.483,7.199  C279.942,87.239,270.872,95.668,259.524,95.668z M236.029,208.006c-8.451,0-15.327,6.876-15.327,15.328  c0,8.451,6.875,15.327,15.327,15.327s15.327-6.875,15.327-15.327C251.356,214.882,244.48,208.006,236.029,208.006z M200.111,36.858  l6.944,33.7c0.245,1.188,1.658,7.11,5.478,7.11h46.991c3.819,0,5.234-5.924,5.479-7.111l3.4-16.501  c0.014-0.071,0.028-0.142,0.044-0.212l3.5-16.985H200.111z M116.002,112.276h5.583c2.706,0,5.268,1.217,6.977,3.314  s2.384,4.852,1.838,7.502l-5.315,25.792l87.67,50.617c3.94-3.849,8.827-6.732,14.275-8.262V95.668h-14.496  c-11.349,0-20.419-8.43-23.108-21.477l-1.483-7.199C160.441,75.45,135.584,91.131,116.002,112.276z M98.118,189.085H76.082  c-2.384,11.201-3.59,22.69-3.59,34.248c0,11.563,1.206,23.052,3.589,34.246h45.503c2.706,0,5.268,1.217,6.977,3.314  s2.384,4.852,1.838,7.502l-1.294,6.278l74.631-43.088c-0.675-2.641-1.034-5.405-1.034-8.252s0.359-5.613,1.034-8.253l-82.48-47.62  l-0.03,0.148C118.534,180.656,109.463,189.085,98.118,189.085z M98.118,171.085c3.818,0,5.234-5.925,5.479-7.112l2.513-12.193  c0.021-0.109,0.043-0.218,0.067-0.327l4.364-21.177H38.705l6.944,33.7c0.245,1.189,1.657,7.11,5.479,7.11H98.118z M110.541,275.58  H69.146c-0.131,0.003-0.26,0.003-0.39,0H38.705l6.944,33.7c0.245,1.189,1.657,7.11,5.479,7.11h46.99  c3.818,0,5.234-5.925,5.479-7.112L110.541,275.58z M182.05,377.741l-1.797-8.721c-0.546-2.65,0.129-5.405,1.838-7.502  s4.271-3.314,6.977-3.314h37.961V255.426c-5.448-1.53-10.335-4.413-14.275-8.262l-88.51,51.101l-3.018,14.647  c-1.477,7.155-4.871,12.921-9.506,16.67C130.545,351.575,154.881,368.23,182.05,377.741z M200.111,376.204l6.944,33.7  c0.245,1.187,1.658,7.108,5.478,7.108h46.991c3.82,0,5.234-5.922,5.479-7.11l6.944-33.699H200.111z M312.404,388.042  c-8.552,3.977-17.433,7.293-26.557,9.895l-3.214,15.6c-2.691,13.046-11.761,21.476-23.109,21.476h-46.991  c-11.349,0-20.419-8.43-23.108-21.476l-3.214-15.6c-9.125-2.601-18.002-5.916-26.556-9.893l-23.037,64.783H335.44L312.404,388.042z   M360.336,329.583c-4.637-3.749-8.031-9.516-9.505-16.672l-3.019-14.649l-88.507-51.1c-3.94,3.85-8.828,6.733-14.276,8.263v102.778  h37.961c2.706,0,5.268,1.217,6.977,3.314c1.709,2.097,2.384,4.852,1.838,7.502l-1.797,8.72  C317.181,368.226,341.515,351.574,360.336,329.583z M433.353,275.58h-30.048c-0.131,0.003-0.263,0.003-0.395,0h-41.393l6.944,33.7  c0.245,1.188,1.658,7.11,5.478,7.11h46.991c3.82,0,5.233-5.922,5.478-7.109L433.353,275.58z M380.371,427.403  c2.023,0,4.059-0.679,5.739-2.071c22.414-18.58,43.171-39.396,61.696-61.873c3.161-3.836,2.614-9.508-1.221-12.669  c-3.835-3.161-9.507-2.614-12.669,1.221c-17.803,21.602-37.752,41.607-59.293,59.463c-3.827,3.172-4.357,8.846-1.186,12.673  C375.216,426.294,377.784,427.403,380.371,427.403z" fill="#000000"/>
<g>
</g>
<g>
</g>
<g>
</g>
<g>
</g>
<g>
</g>
<g>
</g>
<g>
</g>
<g>
</g>
<g>
</g>
<g>
</g>
<g>
</g>
<g>
</g>
<g>
</g>
<g>
</g>
<g>
</g>
</svg>
