<?xml version="1.0" encoding="iso-8859-1"?>
<!-- Generator: Adobe Illustrator 19.0.0, SVG Export Plug-In . SVG Version: 6.00 Build 0)  -->
<svg xmlns="http://www.w3.org/2000/svg" xmlns:xlink="http://www.w3.org/1999/xlink" version="1.1" id="Capa_1" x="0px" y="0px" viewBox="0 0 464.377 464.377" style="enable-background:new 0 0 464.377 464.377;" xml:space="preserve" width="512px" height="512px">
<path id="XMLID_632_" d="M74.077,133.914c-2.983-3.976-2.178-9.618,1.798-12.601c1.511-1.133,3.009-2.208,4.454-3.194  c4.105-2.803,9.705-1.745,12.507,2.36c2.802,4.105,1.746,9.705-2.36,12.507c-1.224,0.835-2.501,1.752-3.798,2.725  c-1.619,1.215-3.515,1.801-5.395,1.801C78.548,137.513,75.846,136.271,74.077,133.914z M262.616,162.555  c-1.158,0.216-2.348,0.397-3.536,0.539c-4.937,0.586-8.462,5.063-7.876,9.999c0.544,4.576,4.43,7.939,8.926,7.939  c0.354,0,0.713-0.021,1.073-0.064c1.581-0.188,3.168-0.429,4.716-0.718c4.886-0.912,8.107-5.612,7.196-10.498  C272.203,164.866,267.508,161.642,262.616,162.555z M63.482,148.981c-4.574-1.944-9.859,0.189-11.803,4.764  c-15.33,36.079,1.551,77.902,37.628,93.231c1.148,0.488,2.341,0.719,3.516,0.719c3.501,0,6.832-2.057,8.287-5.483  c1.944-4.575-0.189-9.859-4.764-11.803c-26.943-11.448-39.549-42.682-28.101-69.626C70.19,156.209,68.057,150.924,63.482,148.981z   M158.793,275.623c11.632-5.968,22.193-14.081,31.061-24.061c3.301-3.716,2.966-9.404-0.75-12.706  c-3.715-3.302-9.405-2.965-12.706,0.75c-16.822,18.932-40.982,29.79-66.287,29.79c-48.888,0-88.662-39.774-88.662-88.662  c0-42.91,30.592-79.598,72.74-87.235c4.891-0.886,8.138-5.57,7.251-10.46c-0.886-4.891-5.572-8.137-10.46-7.251  c-50.719,9.19-87.531,53.327-87.531,104.947c0,58.813,47.848,106.662,106.662,106.662c10.929,0,21.678-1.683,31.907-4.895  l48.407,175.269c1.102,3.99,4.723,6.606,8.67,6.606c0.793,0,1.6-0.106,2.401-0.327c4.791-1.323,7.603-6.28,6.279-11.071  L158.793,275.623z M241.188,223.689v231.684c0,4.971-4.029,9-9,9s-9-4.029-9-9v-231.66c-11.693-0.933-23.425-3.733-34.8-8.566  c-27.535-11.7-48.865-33.421-60.062-61.164c-11.197-27.743-10.92-58.186,0.78-85.719c11.699-27.534,33.421-48.865,61.163-60.062  c27.743-11.198,58.185-10.921,85.718,0.779c27.535,11.699,48.866,33.42,60.063,61.163c11.198,27.743,10.921,58.185-0.779,85.72  C318.446,195.461,281.356,220.38,241.188,223.689z M318.705,148.824c9.82-23.109,10.052-48.659,0.654-71.943  c-9.398-23.284-27.301-41.514-50.411-51.333c-11.819-5.022-24.281-7.537-36.749-7.537c-11.907,0-23.819,2.292-35.194,6.883  c-23.284,9.397-41.514,27.3-51.333,50.409c-9.82,23.109-10.052,48.659-0.655,71.943c9.398,23.284,27.3,41.515,50.41,51.334  c11.956,5.08,24.394,7.484,36.632,7.485C268.656,206.068,303.514,184.573,318.705,148.824z M403.9,215.265  c1.148,0.488,2.342,0.719,3.516,0.719c3.502,0,6.831-2.057,8.287-5.483c15.329-36.078-1.551-77.902-37.629-93.231  c-4.574-1.945-9.858,0.188-11.803,4.764c-1.944,4.575,0.188,9.859,4.764,11.803c26.943,11.448,39.55,42.683,28.102,69.626  C397.192,208.037,399.326,213.321,403.9,215.265z M259.362,47.98c-4.574-1.945-9.858,0.189-11.803,4.764s0.189,9.859,4.764,11.803  c13.052,5.546,23.163,15.842,28.472,28.993c5.308,13.151,5.177,27.581-0.369,40.633c-1.944,4.575,0.188,9.859,4.764,11.803  c1.148,0.488,2.342,0.719,3.516,0.719c3.501,0,6.831-2.057,8.287-5.483c7.426-17.477,7.602-36.8,0.494-54.409  C290.379,69.192,276.84,55.405,259.362,47.98z M378.704,228.535c-1.297,0.974-2.573,1.889-3.794,2.72  c-4.106,2.8-5.167,8.398-2.367,12.506c1.742,2.556,4.568,3.932,7.444,3.932c1.746,0,3.51-0.507,5.062-1.564  c1.444-0.985,2.945-2.061,4.46-3.198c3.976-2.984,4.779-8.625,1.796-12.601C388.321,226.356,382.679,225.553,378.704,228.535z   M373.383,75.785c-4.889-0.885-9.573,2.36-10.46,7.252c-0.885,4.891,2.362,9.574,7.253,10.459  c42.155,7.632,72.752,44.321,72.752,87.237c0,48.888-39.773,88.662-88.662,88.662c-25.306,0-49.469-10.861-66.293-29.797  c-3.304-3.717-8.992-4.052-12.706-0.75c-3.716,3.301-4.052,8.99-0.751,12.706c8.869,9.982,19.437,18.1,31.069,24.069L256.6,452.978  c-1.323,4.791,1.487,9.748,6.278,11.071c0.803,0.221,1.608,0.327,2.401,0.327c3.947,0,7.568-2.617,8.67-6.606l48.408-175.269  c10.229,3.211,20.979,4.895,31.907,4.895c58.813,0,106.662-47.849,106.662-106.662C460.928,129.106,424.109,84.969,373.383,75.785z" fill="#000000"/>
<g>
</g>
<g>
</g>
<g>
</g>
<g>
</g>
<g>
</g>
<g>
</g>
<g>
</g>
<g>
</g>
<g>
</g>
<g>
</g>
<g>
</g>
<g>
</g>
<g>
</g>
<g>
</g>
<g>
</g>
</svg>
