<?xml version="1.0" encoding="iso-8859-1"?>
<!-- Generator: Adobe Illustrator 19.0.0, SVG Export Plug-In . SVG Version: 6.00 Build 0)  -->
<svg xmlns="http://www.w3.org/2000/svg" xmlns:xlink="http://www.w3.org/1999/xlink" version="1.1" id="Layer_1" x="0px" y="0px" viewBox="0 0 512 512" style="enable-background:new 0 0 512 512;" xml:space="preserve" width="512px" height="512px">
<g>
	<g>
		<g>
			<path d="M244.956,197.92c-3.152-3.153-8.264-3.153-11.416,0c-3.153,3.152-3.153,8.263,0,11.415l125.277,125.28     c1.61,1.608,2.496,3.747,2.496,6.023s-0.886,4.414-2.495,6.023c-3.32,3.321-8.725,3.32-12.043,0L165.339,165.227     c-3.321-3.321-3.321-8.724-0.001-12.045c3.321-3.321,8.726-3.32,12.045-0.001l37.648,37.661     c3.152,3.154,8.263,3.154,11.416,0.002c3.153-3.152,3.153-8.263,0.002-11.416l-37.65-37.663c-9.615-9.615-25.261-9.616-34.878,0     c-6.168,6.168-8.357,14.813-6.613,22.76l-14.266,30.588l-40.02,84.549L74.679,318.42c0,0.001,0,0.001-0.001,0.002L49.73,371.129     c-0.001,0.003-0.003,0.005-0.004,0.008l-17.555,37.089c-0.001,0.001-0.001,0.003-0.002,0.004L3.286,469.251     c-0.099,0.216-9.52,21.936,4.004,35.459C12.928,510.346,19.98,512,26.317,512c8.881,0,16.352-3.249,16.522-3.329l88.241-41.768     c0.007-0.003,0.014-0.005,0.021-0.008l74.756-35.385c0.003-0.002,0.006-0.004,0.009-0.005l110.958-52.52     c0.004-0.002,0.009-0.003,0.013-0.005l30.702-14.276c1.732,0.376,3.493,0.583,5.256,0.583c6.315,0,12.629-2.404,17.437-7.21     c4.658-4.657,7.225-10.851,7.225-17.44c0-6.588-2.566-12.781-7.224-17.44L244.956,197.92z M123.59,252.828     c0.734,0.628,1.446,1.286,2.133,1.973c14.317,14.316,14.317,37.612,0,51.927c-6.929,6.931-16.143,10.747-25.943,10.747h-0.001     c-2.206,0-4.382-0.192-6.517-0.575L123.59,252.828z M61.654,383.675c1.776,0.709,3.4,1.772,4.777,3.149     c5.585,5.586,5.585,14.671,0,20.258c-2.706,2.703-6.302,4.196-10.128,4.196c-2.446,0-4.799-0.61-6.883-1.756L61.654,383.675z      M315.149,361.958l-29.484-29.484c-3.153-3.151-8.264-3.152-11.416-0.001c-3.153,3.153-3.153,8.263,0,11.416l25.374,25.376     l-90.992,43.071c-2.19-7.959-6.224-15.362-11.828-21.524c-2.999-3.299-8.105-3.539-11.403-0.54     c-3.299,2.999-3.542,8.105-0.542,11.402c4.533,4.987,7.59,11.142,8.86,17.72l-64.291,30.431     c-12-14.411-11.243-35.924,2.272-49.44c8.73-8.729,21.177-12.472,33.298-10.02c4.368,0.883,8.629-1.94,9.514-6.309     c0.885-4.369-1.939-8.63-6.309-9.515c-17.438-3.535-35.352,1.861-47.919,14.428c-18.461,18.461-20.374,47.288-5.762,67.912     L36.163,493.97c-3.294,1.282-13.04,3.739-17.456-0.678c-4.43-4.43-1.969-14.157-0.689-17.43l24.489-51.737     c4.223,2.149,8.92,3.295,13.797,3.295c8.139,0,15.79-3.17,21.544-8.924c11.879-11.879,11.879-31.21,0-43.09     c-2.703-2.703-5.851-4.839-9.28-6.34l17.616-37.216c4.411,1.172,8.958,1.769,13.593,1.77c0.002,0,0.001,0,0.003,0     c14.112,0,27.382-5.496,37.36-15.476c20.612-20.612,20.612-54.148,0-74.759c-2.014-2.014-4.181-3.85-6.475-5.506l12.071-25.502     l113.396,113.395c3.153,3.152,8.264,3.15,11.416,0c3.153-3.153,3.153-8.264,0-11.417l-117.504-117.5l7.662-16.428     l173.885,173.886L315.149,361.958z" fill="#000000"/>
			<path d="M191.728,293.057c-7.269,0-14.104,2.831-19.244,7.972c-10.61,10.611-10.61,27.877,0.001,38.487     c5.14,5.14,11.975,7.97,19.244,7.97c7.27,0,14.104-2.83,19.244-7.97c10.61-10.611,10.61-27.878-0.001-38.488     C205.832,295.888,198.997,293.057,191.728,293.057z M199.556,328.099c-2.09,2.091-4.87,3.241-7.827,3.241     c-2.958,0-5.737-1.15-7.828-3.243c-4.316-4.316-4.316-11.337,0-15.653c2.091-2.09,4.871-3.242,7.828-3.242     s5.737,1.151,7.828,3.242C203.872,316.761,203.871,323.782,199.556,328.099z" fill="#000000"/>
			<path d="M505.331,188.793c-40.159-7.089-52.868,19.263-62.152,38.507c-9.236,19.142-14.317,29.691-38.02,19.676     c-21.988-9.292-40.331-10.421-54.525-3.356c-11.318,5.634-15.474,14.486-15.91,15.476c-1.798,4.079,0.053,8.845,4.133,10.643     c1.059,0.466,2.163,0.687,3.251,0.687c3.102,0,6.059-1.798,7.391-4.819c0.092-0.209,9.601-20.565,49.376-3.759     c16.676,7.047,29.811,6.844,40.154-0.626c8.762-6.326,13.81-16.789,18.691-26.907c9.325-19.324,16.693-34.588,44.802-29.622     c4.388,0.778,8.578-2.153,9.354-6.545C512.651,193.757,509.721,189.57,505.331,188.793z" fill="#000000"/>
			<path d="M246.266,162.56l0.128-0.059l6.51,14.775c0.991-0.438,9.842-4.592,15.476-15.911c7.063-14.191,5.933-32.535-3.359-54.525     c-10.012-23.694-0.09-28.481,19.677-38.017c19.244-9.283,45.599-21.998,38.506-62.152c-0.775-4.39-4.96-7.32-9.353-6.545     c-4.391,0.775-7.323,4.964-6.547,9.353c4.968,28.116-10.297,35.48-29.621,44.803c-10.118,4.881-20.581,9.929-26.906,18.691     c-7.469,10.344-7.674,23.477-0.628,40.152C266.633,152.132,247.105,162.152,246.266,162.56z" fill="#000000"/>
			<path d="M307.357,195.284c-4.246,1.359-6.586,5.904-5.225,10.15c1.097,3.427,4.269,5.613,7.684,5.613     c0.816,0,1.649-0.124,2.466-0.386c32.947-10.554,53.004-34.082,55.028-64.557c1.015-15.278,6.364-27.192,15.906-35.414     c18.407-15.863,46.871-13.727,47.16-13.701c4.434,0.378,8.337-2.912,8.721-7.348c0.385-4.442-2.904-8.354-7.345-8.739     c-1.435-0.125-35.344-2.804-58.977,17.472c-13.003,11.155-20.26,26.854-21.576,46.661     C348.984,178.424,319.801,191.298,307.357,195.284z" fill="#000000"/>
			<path d="M198.382,120.56c6.113,0,11.857-2.38,16.179-6.701c4.322-4.321,6.702-10.067,6.702-16.179s-2.38-11.858-6.701-16.18     c-4.322-4.321-10.067-6.702-16.18-6.702c-6.112,0-11.857,2.381-16.179,6.702c-8.921,8.922-8.921,23.437,0,32.358     C186.525,118.181,192.27,120.56,198.382,120.56z M193.62,92.917c1.271-1.273,2.963-1.973,4.762-1.973     c1.799,0,3.491,0.7,4.763,1.973c1.273,1.272,1.973,2.964,1.973,4.763c0,1.798-0.7,3.49-1.973,4.762     c-1.272,1.272-2.963,1.972-4.763,1.972c-1.799,0-3.491-0.701-4.763-1.973C190.993,99.816,190.993,95.544,193.62,92.917z" fill="#000000"/>
			<path d="M408.347,141.242c-4.321,4.322-6.701,10.068-6.701,16.18c0,6.112,2.38,11.858,6.701,16.18     c4.322,4.321,10.069,6.702,16.179,6.702c6.112,0,11.858-2.38,16.179-6.702c4.321-4.321,6.703-10.068,6.703-16.179     c0-6.112-2.382-11.857-6.703-16.179c-4.322-4.321-10.068-6.701-16.179-6.701C418.416,134.541,412.669,136.921,408.347,141.242z      M429.288,152.66c1.273,1.271,1.974,2.963,1.974,4.762s-0.701,3.491-1.975,4.763c-1.272,1.272-2.962,1.972-4.762,1.972     s-3.491-0.7-4.763-1.972c-1.273-1.272-1.973-2.964-1.973-4.763s0.7-3.491,1.972-4.762c1.273-1.273,2.964-1.973,4.764-1.973     S428.015,151.388,429.288,152.66z" fill="#000000"/>
			<circle cx="316.796" cy="141.477" r="10.482" fill="#000000"/>
			<circle cx="264.553" cy="18.389" r="10.483" fill="#000000"/>
			<path d="M398.256,294.092l-16.083,0.506c-4.456,0.14-7.954,3.867-7.814,8.322c0.136,4.37,3.723,7.82,8.064,7.82     c0.085,0,0.17-0.001,0.257-0.005l16.083-0.505c4.457-0.14,7.955-3.865,7.815-8.321     C406.439,297.45,402.752,293.947,398.256,294.092z" fill="#000000"/>
			<path d="M228.624,69.92c0.087,0.003,0.172,0.004,0.258,0.004c4.34,0,7.927-3.45,8.064-7.82l0.505-16.081     c0.141-4.456-3.358-8.183-7.814-8.323c-4.441-0.166-8.182,3.358-8.322,7.815l-0.506,16.082     C220.669,66.053,224.167,69.779,228.624,69.92z" fill="#000000"/>
			<path d="M312.063,82.517c0.138,4.37,3.722,7.818,8.066,7.818c0.084,0,0.17-0.001,0.256-0.004l16.083-0.506     c4.455-0.14,7.954-3.866,7.814-8.322c-0.14-4.455-3.841-7.966-8.322-7.815l-16.082,0.506     C315.422,74.335,311.924,78.061,312.063,82.517z" fill="#000000"/>
		</g>
	</g>
</g>
<g>
</g>
<g>
</g>
<g>
</g>
<g>
</g>
<g>
</g>
<g>
</g>
<g>
</g>
<g>
</g>
<g>
</g>
<g>
</g>
<g>
</g>
<g>
</g>
<g>
</g>
<g>
</g>
<g>
</g>
</svg>
