<?xml version="1.0" encoding="iso-8859-1"?>
<!-- Generator: Adobe Illustrator 19.0.0, SVG Export Plug-In . SVG Version: 6.00 Build 0)  -->
<svg xmlns="http://www.w3.org/2000/svg" xmlns:xlink="http://www.w3.org/1999/xlink" version="1.1" id="Layer_1" x="0px" y="0px" viewBox="0 0 512.001 512.001" style="enable-background:new 0 0 512.001 512.001;" xml:space="preserve" width="512px" height="512px">
<g>
	<g>
		<path d="M244.469,265.441c9.16,8.429,29.556,27.196-0.014-0.013c-5.936-5.462-4.103-3.775-0.008-0.007    c-19.195-17.661-40.354-31.086-59.58-37.802c-21.662-7.566-39.01-5.848-48.842,4.838c-9.834,10.686-10.105,28.115-0.766,49.075    c8.289,18.604,23.428,38.579,42.626,56.244c19.198,17.664,40.359,31.092,59.588,37.809c1.222,0.426,2.427,0.817,3.62,1.185    L38.356,489.166l78.803-176.245c2.001-4.476-0.005-9.729-4.481-11.73c-4.48-2-9.729,0.004-11.73,4.481L17.235,492.898    c-4.914,10.915,8.791,23.411,19.181,17.648l239.431-132.739c4.26-2.055,7.333-3.952,10.468-7.061    C306.213,351.016,287.298,304.857,244.469,265.441z M273.246,358.725c-6.012,7.716-22.256,2.773-29.918,0.096    c-16.993-5.936-35.964-18.05-53.42-34.112c-17.455-16.06-31.103-33.962-38.43-50.402c-6.093-13.677-6.986-24.826-2.387-29.824    c2.315-2.516,6.297-3.774,11.486-3.774c5.119,0,11.414,1.225,18.432,3.677c16.993,5.936,35.964,18.05,53.42,34.112    C270.891,313.888,281.303,348.38,273.246,358.725z" fill="#000000"/>
	</g>
</g>
<g>
	<g>
		<g>
			<path d="M210.75,210.565C207.027,207.373,212.424,212.001,210.75,210.565L210.75,210.565z" fill="#000000"/>
			<path d="M256.079,31.831c3.971-2.878,4.857-8.429,1.979-12.401c-2.879-3.971-8.428-4.855-12.401-1.979     c-21.857,15.841-32.753,32.189-32.385,48.593c0.265,11.886,6.06,19.148,11.665,26.171c4.834,6.057,9.832,12.32,12.28,23.056     c3.749,16.44-1.106,31.041-5.389,43.923c-4.737,14.25-12.152,27.321-22.039,38.852c-3.193,3.724-2.763,9.329,0.96,12.521     c3.672,3.15,9.37,2.711,12.519-0.961c11.394-13.288,19.943-28.363,25.411-44.809c4.516-13.586,10.703-32.193,5.851-53.474     c-3.352-14.689-10.206-23.28-15.714-30.183c-5.033-6.308-7.666-9.86-7.791-15.491C230.741,52.909,244.493,40.227,256.079,31.831z     " fill="#000000"/>
		</g>
	</g>
</g>
<g>
	<g>
		<path d="M335.792,70.703c-0.006,0-0.011,0-0.015,0c-4.898,0-8.871,3.966-8.879,8.864c-0.025,14.689-2.931,28.845-8.639,42.073    c-10.961,25.405-29.288,40.692-42.734,49.044c-4.165,2.588-5.443,8.063-2.856,12.229c1.682,2.706,4.583,4.194,7.551,4.194    c1.599,0,3.219-0.432,4.677-1.338c15.602-9.692,36.883-27.465,49.668-57.093c6.668-15.455,10.063-31.968,10.09-49.08    C344.664,74.693,340.695,70.711,335.792,70.703z" fill="#000000"/>
	</g>
</g>
<g>
	<g>
		<path d="M459.986,116.786c-4.283-2.393-9.691-0.863-12.084,3.414c-12.118,21.662-27.532,36.776-45.812,44.923    c-12.973,5.782-23.731,6.514-35.119,7.287c-12.262,0.835-24.943,1.696-39.101,9.214c-22.45,11.917-38.839,35.804-48.713,70.998    c-1.258,4.486,1.286,9.316,5.699,10.809c4.758,1.609,10.042-1.174,11.398-6.01c8.51-30.337,21.949-50.561,39.941-60.112    c10.813-5.742,20.622-6.408,31.979-7.18c11.855-0.806,25.291-1.719,41.143-8.784c21.857-9.742,40.053-27.396,54.081-52.473    C465.793,124.591,464.264,119.18,459.986,116.786z" fill="#000000"/>
	</g>
</g>
<g>
	<g>
		<path d="M464.442,282.184c-2.583-4.17-8.059-5.451-12.223-2.866c-14.134,8.765-27.049,11.956-38.377,9.484    c-7.095-1.55-11.392-4.799-16.833-8.914c-4.296-3.249-9.164-6.93-15.792-9.878c-19.998-8.893-45.393-6.129-75.482,8.214    c-4.426,2.111-6.304,7.41-4.194,11.836c2.11,4.425,7.406,6.302,11.836,4.194c25.189-12.01,45.587-14.706,60.623-8.02    c4.76,2.117,8.42,4.886,12.296,7.817c6.023,4.556,12.85,9.72,23.758,12.1c3.76,0.82,7.592,1.231,11.494,1.231    c12.698,0,26.114-4.341,40.03-12.974C465.746,291.824,467.028,286.35,464.442,282.184z" fill="#000000"/>
	</g>
</g>
<g>
	<g>
		<path d="M485.246,197.544c-0.708-4.838-5.186-8.181-10.026-7.503c1.061-0.155,1.591-0.233-0.045,0.004    c-6.043,0.884-2.25,0.331-0.118,0.02c-9.309,1.374-18.279,4.163-26.662,8.292c-11.659,5.745-22.19,14.199-30.457,24.45    c-2.813,3.488-2.537,8.695,0.639,11.859c3.685,3.67,9.92,3.337,13.184-0.711c6.658-8.256,15.124-15.058,24.485-19.669    c6.752-3.328,13.985-5.571,21.501-6.671C482.598,206.904,485.957,202.396,485.246,197.544z" fill="#000000"/>
	</g>
</g>
<g>
	<g>
		<path d="M371.678,223.199c-5.494,0-9.963,4.47-9.963,9.963c0,5.494,4.469,9.963,9.963,9.963c5.494,0,9.963-4.469,9.963-9.963    C381.641,227.668,377.172,223.199,371.678,223.199z" fill="#000000"/>
	</g>
</g>
<g>
	<g>
		<path d="M392.598,94.899c-5.494,0-9.963,4.469-9.963,9.963c0,5.493,4.47,9.962,9.963,9.962c5.494,0,9.963-4.469,9.963-9.962    C402.561,99.368,398.092,94.899,392.598,94.899z" fill="#000000"/>
	</g>
</g>
<g>
	<g>
		<path d="M317.367,0c-5.494,0-9.963,4.469-9.963,9.963c0,5.493,4.469,9.962,9.963,9.962s9.963-4.469,9.963-9.962    C327.33,4.469,322.861,0,317.367,0z" fill="#000000"/>
	</g>
</g>
<g>
	<g>
		<path d="M482.191,63.059c-5.494,0-9.963,4.469-9.963,9.962c0,5.493,4.47,9.963,9.964,9.963c5.494,0,9.963-4.469,9.963-9.963    C492.154,67.528,487.685,63.059,482.191,63.059z" fill="#000000"/>
	</g>
</g>
<g>
	<g>
		<path d="M421.006,18.742c-5.493,0-9.962,4.469-9.962,9.963s4.469,9.963,9.962,9.963c5.494,0,9.963-4.469,9.963-9.963    S426.5,18.742,421.006,18.742z" fill="#000000"/>
	</g>
</g>
<g>
	<g>
		<path d="M280.212,53.687c-5.494,0-9.963,4.469-9.963,9.963c0,5.492,4.469,9.962,9.963,9.962c5.494,0,9.963-4.469,9.963-9.962    C290.176,58.156,285.707,53.687,280.212,53.687z" fill="#000000"/>
	</g>
</g>
<g>
	<g>
		<path d="M485.832,241.589c-5.494,0-9.963,4.469-9.963,9.962c0,5.494,4.469,9.963,9.963,9.963c5.494,0,9.963-4.469,9.963-9.963    C495.796,246.06,491.327,241.589,485.832,241.589z" fill="#000000"/>
	</g>
</g>
<g>
	<g>
		<path d="M193.644,131.083c-5.494,0-9.963,4.469-9.963,9.963c0,5.492,4.469,9.962,9.963,9.962c5.493,0,9.962-4.469,9.962-9.962    C203.607,135.552,199.137,131.083,193.644,131.083z" fill="#000000"/>
	</g>
</g>
<g>
	<g>
		<path d="M159.442,348.684c-15.223,0-27.609,12.386-27.609,27.609s12.386,27.609,27.609,27.609    c15.223,0,27.609-12.386,27.609-27.609S174.666,348.684,159.442,348.684z M159.442,386.144c-5.432,0-9.851-4.421-9.851-9.851    c0-5.432,4.419-9.851,9.851-9.851s9.851,4.419,9.851,9.851C169.293,381.725,164.874,386.144,159.442,386.144z" fill="#000000"/>
	</g>
</g>
<g>
	<g>
		<path d="M114.096,409.146c-2.597-6.902-7.727-12.38-14.444-15.423c-4.47-2.027-9.73-0.045-11.752,4.422    c-2.024,4.467-0.044,9.729,4.422,11.752c2.396,1.087,4.226,3.04,5.153,5.503s0.839,5.139-0.247,7.536    c-2.241,4.946-8.087,7.146-13.038,4.906c-4.466-2.024-9.73-0.044-11.752,4.422c-2.024,4.466-0.044,9.728,4.422,11.752    c3.687,1.67,7.549,2.461,11.356,2.461c10.51-0.001,20.574-6.032,25.187-16.211C116.444,423.549,116.692,416.049,114.096,409.146z" fill="#000000"/>
	</g>
</g>
<g>
</g>
<g>
</g>
<g>
</g>
<g>
</g>
<g>
</g>
<g>
</g>
<g>
</g>
<g>
</g>
<g>
</g>
<g>
</g>
<g>
</g>
<g>
</g>
<g>
</g>
<g>
</g>
<g>
</g>
</svg>
