<?xml version="1.0" encoding="iso-8859-1"?>
<!-- Generator: Adobe Illustrator 19.0.0, SVG Export Plug-In . SVG Version: 6.00 Build 0)  -->
<svg version="1.1" id="Layer_1" xmlns="http://www.w3.org/2000/svg" xmlns:xlink="http://www.w3.org/1999/xlink" x="0px" y="0px"
	 viewBox="0 0 512.002 512.002" style="enable-background:new 0 0 512.002 512.002;" xml:space="preserve">
<g>
	<path style="fill:#FFD039;" d="M188.484,99.972H89.571v-1.347c0-16.407,13.301-29.707,29.707-29.707h39.498
		c16.408,0,29.707,13.301,29.707,29.707V99.972z"/>
	<path style="fill:#FFD039;" d="M423.611,99.972h-98.913v-1.347c0-16.407,13.301-29.707,29.707-29.707h39.498
		c16.406,0,29.707,13.301,29.707,29.707V99.972z"/>
</g>
<g>
	<path style="fill:#FF9F34;" d="M158.776,68.917h-22.505c16.408,0,29.707,13.301,29.707,29.707v1.347h22.505v-1.347
		C188.484,82.218,175.183,68.917,158.776,68.917z"/>
	<path style="fill:#FF9F34;" d="M393.902,68.917h-22.505c16.406,0,29.707,13.301,29.707,29.707v1.347h22.505v-1.347
		C423.611,82.218,410.31,68.917,393.902,68.917z"/>
</g>
<g>
	<rect x="8.44" y="133.887" style="fill:#F94851;" width="30.529" height="135.967"/>
	<rect x="124.59" y="133.887" style="fill:#F94851;" width="30.529" height="135.967"/>
	<rect x="240.741" y="133.887" style="fill:#F94851;" width="30.529" height="135.967"/>
	<rect x="356.881" y="133.887" style="fill:#F94851;" width="30.529" height="135.967"/>
	<rect x="473.032" y="133.887" style="fill:#F94851;" width="30.529" height="135.967"/>
</g>
<rect x="481.055" y="133.887" style="fill:#B72A38;" width="22.505" height="135.967"/>
<path style="fill:#F94851;" d="M503.56,133.883H8.44l0,0c-0.242-18.654,14.157-33.911,32.004-33.911h431.102
	c17.508,0,31.767,14.705,32.004,33.004L503.56,133.883z"/>
<path style="fill:#B72A38;" d="M503.549,132.976c-0.237-18.299-14.496-33.004-32.003-33.004h-22.505
	c17.507,0,31.767,14.705,32.003,33.004l0.011,0.907h22.505L503.549,132.976z"/>
<path style="fill:#F94851;" d="M469.802,411.001H42.198c-18.645,0-33.758-15.115-33.758-33.758V269.845H503.56v107.397
	C503.56,395.887,488.447,411.001,469.802,411.001z"/>
<path style="fill:#B72A38;" d="M481.055,269.845v107.397c0,18.644-15.114,33.758-33.758,33.758h22.505
	c18.645,0,33.758-15.115,33.758-33.758V269.845H481.055z"/>
<g>
	<path style="fill:#2A2A2C;" d="M70.33,443.087c17.721,0,32.086-14.365,32.086-32.086H38.244
		C38.244,428.722,52.609,443.087,70.33,443.087z"/>
	<path style="fill:#2A2A2C;" d="M321.641,443.087c17.721,0,32.086-14.365,32.086-32.086h-64.172
		C289.555,428.722,303.92,443.087,321.641,443.087z"/>
	<path style="fill:#2A2A2C;" d="M195.986,443.087c17.721,0,32.086-14.365,32.086-32.086H163.9
		C163.9,428.722,178.265,443.087,195.986,443.087z"/>
	<path style="fill:#2A2A2C;" d="M447.297,443.087c17.721,0,32.086-14.365,32.086-32.086h-64.172
		C415.211,428.722,429.576,443.087,447.297,443.087z"/>
</g>
<rect x="8.44" y="310.837" style="fill:#FFD039;" width="495.121" height="31.688"/>
<rect x="481.055" y="310.837" style="fill:#FF9F34;" width="22.505" height="31.688"/>
<path d="M511.997,133.823c0-0.018,0.002-0.035,0.002-0.053l-0.012-0.904c-0.296-22.791-18.438-41.334-40.442-41.334h-40.166
	c-3.335-17.656-18.866-31.055-37.476-31.055h-39.499c-18.61,0-34.141,13.4-37.476,31.055H196.251
	c-3.334-17.656-18.865-31.055-37.476-31.055h-39.498c-18.611,0-34.141,13.4-37.476,31.055H40.442
	c-10.635,0-20.677,4.24-28.277,11.938c-7.959,8.063-12.273,18.842-12.163,30.366c0,0.016-0.002,0.03-0.002,0.045v135.964v40.985
	v31.689v34.723c0,19.163,12.845,35.374,30.376,40.5c3.222,19.147,19.906,33.783,39.954,33.783c19.453,0,35.741-13.778,39.636-32.086
	h46.385c3.895,18.308,20.183,32.086,39.636,32.086c19.453,0,35.741-13.778,39.636-32.086h46.385
	c3.895,18.308,20.183,32.086,39.636,32.086s35.742-13.778,39.637-32.086h46.385c3.895,18.308,20.183,32.086,39.636,32.086
	c20.823,0,38.02-15.788,40.269-36.02c14.415-6.719,24.434-21.339,24.434-38.264v-34.723v-31.689v-40.985V133.883
	C512,133.863,511.997,133.842,511.997,133.823z M395.851,261.407V142.322h68.741v119.084H395.851L395.851,261.407z M279.704,261.407
	V142.322h68.74v119.084H279.704L279.704,261.407z M163.556,261.407V142.322h68.74v119.084H163.556L163.556,261.407z M47.408,261.407
	V142.322h68.74v119.084H47.408L47.408,261.407z M16.879,142.322h13.65v119.084h-13.65V142.322z M133.027,142.322h13.65v119.084
	h-13.65V142.322z M249.175,142.322h13.65v119.084h-13.65V142.322z M365.323,142.322h13.65v119.084h-13.65V142.322z M481.471,142.322
	h13.65v119.084h-13.65V142.322z M354.404,77.357h39.499c9.242,0,17.126,5.926,20.052,14.176h-79.604
	C337.279,83.283,345.162,77.357,354.404,77.357z M119.278,77.357h39.498c9.241,0,17.126,5.926,20.052,14.176H99.227
	C102.152,83.283,110.037,77.357,119.278,77.357z M24.178,115.329c4.403-4.462,10.179-6.917,16.265-6.917H89.57h98.914h136.213
	h98.914h47.934c10.304,0,19.157,7.153,22.323,17.031h-20.837h-85.62h-30.529h-85.619h-30.529h-85.619h-30.529h-85.62H18.089
	C19.286,121.649,21.349,118.195,24.178,115.329z M70.33,434.647c-10.067,0-18.685-6.323-22.09-15.207H92.42
	C89.015,428.325,80.396,434.647,70.33,434.647z M195.985,434.647c-10.067,0-18.684-6.323-22.09-15.207h44.181
	C214.67,428.325,206.052,434.647,195.985,434.647z M321.641,434.647c-10.067,0-18.685-6.323-22.09-15.207h44.182
	C340.327,428.325,331.707,434.647,321.641,434.647z M447.297,434.647c-10.067,0-18.684-6.323-22.09-15.207h44.181
	C465.981,428.325,457.363,434.647,447.297,434.647z M469.802,402.561h-54.592h-61.484h-64.172h-61.484h-64.172h-61.483H42.198
	c-13.961,0-25.319-11.359-25.319-25.319V350.96h402.286c4.662,0,8.44-3.778,8.44-8.44s-3.778-8.44-8.44-8.44H16.879v-14.81h70.33
	c4.661,0,8.44-3.778,8.44-8.44c0-4.661-3.779-8.44-8.44-8.44h-70.33v-24.106h22.089h85.619h30.529h85.619h30.529h85.619h30.529
	h85.62h22.09v24.106H120.967c-4.661,0-8.44,3.779-8.44,8.44c0,4.662,3.779,8.44,8.44,8.44h374.154v14.81h-42.198
	c-4.662,0-8.44,3.778-8.44,8.44s3.778,8.44,8.44,8.44h42.198v26.283C495.121,391.203,483.762,402.561,469.802,402.561z"/>
<g>
</g>
<g>
</g>
<g>
</g>
<g>
</g>
<g>
</g>
<g>
</g>
<g>
</g>
<g>
</g>
<g>
</g>
<g>
</g>
<g>
</g>
<g>
</g>
<g>
</g>
<g>
</g>
<g>
</g>
</svg>
