<?xml version="1.0" encoding="iso-8859-1"?>
<!-- Generator: Adobe Illustrator 19.0.0, SVG Export Plug-In . SVG Version: 6.00 Build 0)  -->
<svg xmlns="http://www.w3.org/2000/svg" xmlns:xlink="http://www.w3.org/1999/xlink" version="1.1" id="Layer_1" x="0px" y="0px" viewBox="0 0 512.002 512.002" style="enable-background:new 0 0 512.002 512.002;" xml:space="preserve" width="512px" height="512px">
<g>
	<g>
		<path d="M511.997,133.823c0-0.018,0.002-0.035,0.002-0.053l-0.012-0.904c-0.296-22.791-18.438-41.334-40.442-41.334h-40.166    c-3.335-17.656-18.866-31.055-37.476-31.055h-39.499c-18.61,0-34.141,13.4-37.476,31.055H196.251    c-3.334-17.656-18.865-31.055-37.476-31.055h-39.498c-18.611,0-34.141,13.4-37.476,31.055H40.442    c-10.635,0-20.677,4.24-28.277,11.938c-7.959,8.063-12.273,18.842-12.163,30.366c0,0.016-0.002,0.03-0.002,0.045v135.964v40.985    v31.689v34.723c0,19.163,12.845,35.374,30.376,40.5c3.222,19.147,19.906,33.783,39.954,33.783    c19.453,0,35.741-13.778,39.636-32.086h46.385c3.895,18.308,20.183,32.086,39.636,32.086c19.453,0,35.741-13.778,39.636-32.086    h46.385c3.895,18.308,20.183,32.086,39.636,32.086c19.453,0,35.742-13.778,39.637-32.086h46.385    c3.895,18.308,20.183,32.086,39.636,32.086c20.823,0,38.02-15.788,40.269-36.02c14.415-6.719,24.434-21.339,24.434-38.264v-34.723    v-31.689v-40.985V133.883C512,133.863,511.997,133.842,511.997,133.823z M354.404,77.357h39.499    c9.242,0,17.126,5.926,20.052,14.176h-79.604C337.279,83.283,345.162,77.357,354.404,77.357z M119.278,77.357h39.498    c9.241,0,17.126,5.926,20.052,14.176H99.227C102.152,83.283,110.037,77.357,119.278,77.357z M24.178,115.329    c4.403-4.462,10.179-6.917,16.265-6.917H89.57h98.914h136.213h98.914h47.934c10.304,0,19.157,7.153,22.323,17.031h-20.837h-85.62    h-30.529h-85.619h-30.529h-85.619h-30.529h-85.62H18.089C19.286,121.649,21.349,118.195,24.178,115.329z M464.592,142.322v119.084    h-68.741V142.322H464.592z M378.972,142.322v119.084h-13.65V142.322H378.972z M348.444,142.322v119.084h-68.74V142.322H348.444z     M262.825,142.322v119.084h-13.65V142.322H262.825z M232.296,142.322v119.084h-68.74V142.322H232.296z M146.676,142.322v119.084    h-13.65V142.322H146.676z M116.147,142.322v119.084h-68.74V142.322H116.147z M16.879,142.322h13.65v119.084h-13.65V142.322z     M70.33,434.647c-10.067,0-18.685-6.323-22.09-15.207H92.42C89.015,428.325,80.396,434.647,70.33,434.647z M195.985,434.647    c-10.067,0-18.684-6.323-22.09-15.207h44.181C214.67,428.325,206.052,434.647,195.985,434.647z M321.641,434.647    c-10.067,0-18.685-6.323-22.09-15.207h44.182C340.327,428.325,331.707,434.647,321.641,434.647z M447.297,434.647    c-10.067,0-18.684-6.323-22.09-15.207h44.181C465.981,428.325,457.363,434.647,447.297,434.647z M495.121,302.392H120.967    c-4.661,0-8.44,3.779-8.44,8.44c0,4.662,3.779,8.44,8.44,8.44h374.154v14.81h-42.198c-4.662,0-8.44,3.778-8.44,8.44    c0,4.662,3.778,8.44,8.44,8.44h42.198v26.283c0,13.96-11.359,25.319-25.319,25.319h-54.592h-61.484h-64.172h-61.484h-64.172    h-61.483H42.198c-13.961,0-25.319-11.359-25.319-25.319V350.96h402.286c4.662,0,8.44-3.778,8.44-8.44    c0-4.662-3.778-8.44-8.44-8.44H16.879v-14.81h70.33c4.661,0,8.44-3.778,8.44-8.44c0-4.661-3.779-8.44-8.44-8.44h-70.33v-24.106    h22.089h85.619h30.529h85.619h30.529h85.619h30.529h85.62h22.09V302.392z M495.121,261.407h-13.65V142.322h13.65V261.407z" fill="#000000"/>
	</g>
</g>
<g>
</g>
<g>
</g>
<g>
</g>
<g>
</g>
<g>
</g>
<g>
</g>
<g>
</g>
<g>
</g>
<g>
</g>
<g>
</g>
<g>
</g>
<g>
</g>
<g>
</g>
<g>
</g>
<g>
</g>
</svg>
